<svg xmlns="http://www.w3.org/2000/svg" viewBox="0 0 100 100">
  <!-- Body (fur vest) -->
  <rect x="28" y="48" width="44" height="35" rx="5" fill="#92400e"/>
  <!-- Fur texture -->
  <path d="M28 55 Q35 52 42 55 Q49 52 56 55 Q63 52 72 55" fill="none" stroke="#78350f" stroke-width="2"/>
  <!-- Belt -->
  <rect x="28" y="70" width="44" height="6" fill="#1c1917"/>
  <rect x="46" y="68" width="8" height="10" rx="1" fill="#fbbf24"/>
  <!-- Head -->
  <rect x="25" y="18" width="50" height="35" rx="8" fill="#d4d4d4"/>
  <!-- Viking helmet -->
  <ellipse cx="50" cy="22" rx="26" ry="10" fill="#71717a"/>
  <rect x="28" y="8" width="44" height="16" rx="3" fill="#a1a1aa"/>
  <!-- Horns -->
  <path d="M28 15 Q18 5 15 15 Q12 25 22 22" fill="#fef3c7" stroke="#d97706" stroke-width="1"/>
  <path d="M72 15 Q82 5 85 15 Q88 25 78 22" fill="#fef3c7" stroke="#d97706" stroke-width="1"/>
  <!-- Angry eyes -->
  <rect x="35" y="30" width="10" height="5" fill="white"/>
  <rect x="55" y="30" width="10" height="5" fill="white"/>
  <circle cx="40" cy="32" r="2" fill="#1e1b4b"/>
  <circle cx="60" cy="32" r="2" fill="#1e1b4b"/>
  <!-- Eyebrows (fierce) -->
  <line x1="34" y1="28" x2="46" y2="26" stroke="#1e1b4b" stroke-width="2"/>
  <line x1="66" y1="28" x2="54" y2="26" stroke="#1e1b4b" stroke-width="2"/>
  <!-- Beard -->
  <path d="M35 45 Q40 55 50 58 Q60 55 65 45 L65 50 Q60 60 50 62 Q40 60 35 50 Z" fill="#f97316"/>
  <!-- Arms -->
  <rect x="18" y="52" width="10" height="22" rx="3" fill="#d4d4d4"/>
  <rect x="72" y="52" width="10" height="22" rx="3" fill="#d4d4d4"/>
  <!-- Legs -->
  <rect x="33" y="83" width="14" height="14" rx="3" fill="#92400e"/>
  <rect x="53" y="83" width="14" height="14" rx="3" fill="#92400e"/>
</svg>