<svg xmlns="http://www.w3.org/2000/svg" viewBox="0 0 100 100">
  <!-- Body (explorer vest) -->
  <rect x="30" y="48" width="40" height="35" rx="5" fill="#84cc16"/>
  <!-- Vest pockets -->
  <rect x="33" y="55" width="12" height="10" rx="2" fill="#65a30d" stroke="#4d7c0f" stroke-width="1"/>
  <rect x="55" y="55" width="12" height="10" rx="2" fill="#65a30d" stroke="#4d7c0f" stroke-width="1"/>
  <line x1="33" y1="58" x2="45" y2="58" stroke="#4d7c0f" stroke-width="1"/>
  <line x1="55" y1="58" x2="67" y2="58" stroke="#4d7c0f" stroke-width="1"/>
  <!-- Head -->
  <rect x="25" y="18" width="50" height="35" rx="8" fill="#a3e635"/>
  <!-- Safari/Explorer hat -->
  <ellipse cx="50" cy="22" rx="30" ry="6" fill="#d4a574"/>
  <rect x="32" y="8" width="36" height="16" rx="5" fill="#c4a06a"/>
  <rect x="38" y="6" width="24" height="4" fill="#92400e"/>
  <!-- Eyes (curious) -->
  <circle cx="38" cy="32" r="6" fill="white"/>
  <circle cx="62" cy="32" r="6" fill="white"/>
  <circle cx="40" cy="32" r="3" fill="#1e1b4b"/>
  <circle cx="64" cy="32" r="3" fill="#1e1b4b"/>
  <!-- Excited eyebrows -->
  <path d="M32 24 Q38 22 44 24" fill="none" stroke="#1e1b4b" stroke-width="2"/>
  <path d="M56 24 Q62 22 68 24" fill="none" stroke="#1e1b4b" stroke-width="2"/>
  <!-- Smile -->
  <path d="M42 44 Q50 50 58 44" fill="none" stroke="#1e1b4b" stroke-width="2" stroke-linecap="round"/>
  <!-- Arms -->
  <rect x="20" y="52" width="10" height="20" rx="3" fill="#a3e635"/>
  <rect x="70" y="52" width="10" height="20" rx="3" fill="#a3e635"/>
  <!-- Binoculars -->
  <circle cx="15" cy="58" r="5" fill="#374151"/>
  <circle cx="15" cy="68" r="5" fill="#374151"/>
  <rect x="13" y="58" width="4" height="10" fill="#374151"/>
  <circle cx="15" cy="58" r="3" fill="#60a5fa"/>
  <circle cx="15" cy="68" r="3" fill="#60a5fa"/>
  <!-- Legs -->
  <rect x="35" y="83" width="12" height="14" rx="3" fill="#65a30d"/>
  <rect x="53" y="83" width="12" height="14" rx="3" fill="#65a30d"/>
  <!-- Boots -->
  <rect x="34" y="92" width="14" height="5" rx="2" fill="#78350f"/>
  <rect x="52" y="92" width="14" height="5" rx="2" fill="#78350f"/>
</svg>